<?xml version="1.0" encoding="UTF-8"?>
<svg xmlns="http://www.w3.org/2000/svg" xmlns:xlink="http://www.w3.org/1999/xlink" width="1024px" height="1024px" viewBox="0 0 1024 1024" version="1.1">
<g id="surface1">
<path style=" stroke:none;fill-rule:nonzero;fill:rgb(0%,0%,0%);fill-opacity:1;" d="M 0 339.078125 L 0 586.582031 L 146.285156 586.582031 L 146.285156 751.582031 L 292.570312 751.582031 L 292.570312 916.582031 L 731.429688 916.582031 L 731.429688 751.582031 L 877.714844 751.582031 L 877.714844 421.578125 L 1024 421.578125 L 1024 256.578125 L 877.714844 256.578125 L 877.714844 91.574219 L 438.855469 91.574219 L 438.855469 256.578125 L 146.285156 256.578125 L 146.285156 91.574219 L 0 91.574219 Z M 877.714844 339.078125 L 877.714844 421.578125 L 731.429688 421.578125 L 731.429688 751.582031 L 292.570312 751.582031 L 292.570312 586.582031 L 146.285156 586.582031 L 146.285156 421.578125 L 438.855469 421.578125 L 438.855469 256.578125 L 877.714844 256.578125 Z M 877.714844 339.078125 "/>
</g>
</svg>
