<?xml version="1.0" standalone="no"?>
<!DOCTYPE svg PUBLIC "-//W3C//DTD SVG 20010904//EN"
 "http://www.w3.org/TR/2001/REC-SVG-20010904/DTD/svg10.dtd">
<svg version="1.0" xmlns="http://www.w3.org/2000/svg"
 width="2800.000000pt" height="2482.000000pt" viewBox="0 0 2800.000000 2482.000000"
 preserveAspectRatio="xMidYMid meet">

<g transform="translate(0.000000,2482.000000) scale(0.100000,-0.100000)"
fill="#000000" stroke="none">
<path d="M0 16600 l0 -6000 2000 0 2000 0 0 -2000 0 -2000 2000 0 2000 0 0
-2000 0 -2000 6000 0 6000 0 0 2000 0 2000 2000 0 2000 0 0 4000 0 4000 2000
0 2000 0 0 2000 0 2000 -2000 0 -2000 0 0 2000 0 2000 -6000 0 -6000 0 0
-2000 0 -2000 -4000 0 -4000 0 0 2000 0 2000 -2000 0 -2000 0 0 -6000z m24000
0 l0 -2000 -2000 0 -2000 0 0 -4000 0 -4000 -6000 0 -6000 0 0 2000 0 2000
-2000 0 -2000 0 0 2000 0 2000 4000 0 4000 0 0 2000 0 2000 6000 0 6000 0 0
-2000z"/>
</g>
</svg>
